<?xml version="1.0" encoding="utf-8"?>
<!-- Generator: Adobe Illustrator 26.0.3, SVG Export Plug-In . SVG Version: 6.00 Build 0)  -->
<svg version="1.1" id="Layer_1" xmlns="http://www.w3.org/2000/svg" xmlns:xlink="http://www.w3.org/1999/xlink" x="0px" y="0px"
	 viewBox="0 0 778.3 421.9" style="enable-background:new 0 0 778.3 421.9;" xml:space="preserve">
<style type="text/css">
	.st0{font-family:'ArialMT';}
	.st1{font-size:20px;}
	.st2{fill:none;stroke:#000000;stroke-miterlimit:10;}
	.st3{fill:none;stroke:#1D71B8;stroke-miterlimit:10;}
	.st4{fill:#1D71B8;}
	.st5{font-size:12px;}
	.st6{fill:#BE1622;}
	.st7{fill:none;stroke:#BE1622;stroke-miterlimit:10;}
	.st8{fill:none;stroke:#006633;stroke-miterlimit:10;}
	.st9{fill:#006633;}
	.st10{fill:none;stroke:#E30613;stroke-miterlimit:10;}
	.st11{fill:#E30613;}
</style>
<text transform="matrix(1 0 0 1 361.4901 34.2851)" class="st0 st1">Main program</text>
<g>
	<g>
		<line class="st2" x1="174.4" y1="290.2" x2="174.4" y2="322.2"/>
		<g>
			<polygon points="170.7,319.4 174.4,320.9 178.1,319.4 174.4,328.1 			"/>
		</g>
	</g>
</g>
<g>
	<polygon class="st3" points="123.8,289.9 71.3,289.9 45.1,309.2 71.3,328.5 123.8,328.5 150,309.2 	"/>
	<text transform="matrix(1 0 0 1 72.2005 305.1931)"><tspan x="0" y="0" class="st4 st0 st5">Method-2</tspan><tspan x="1.7" y="14.4" class="st4 st0 st5">(class-A)</tspan></text>
</g>
<g>
	<polygon class="st3" points="123.8,174.4 71.3,174.4 45.1,193.8 71.3,213.1 123.8,213.1 150,193.8 	"/>
	<text transform="matrix(1 0 0 1 72.2005 189.7668)"><tspan x="0" y="0" class="st4 st0 st5">Method-1</tspan><tspan x="1.7" y="14.4" class="st4 st0 st5">(class-A)</tspan></text>
</g>
<g>
	<g>
		<line class="st2" x1="174.4" y1="174.8" x2="174.4" y2="206.7"/>
		<g>
			<polygon points="170.7,203.9 174.4,205.5 178.1,203.9 174.4,212.7 			"/>
		</g>
	</g>
</g>
<g>
	<text transform="matrix(1 0 0 1 146.716 247.48)"><tspan x="0" y="0" class="st4 st0 st5">Object-1.2</tspan><tspan x="4" y="14.4" class="st4 st0 st5">(class-A)</tspan></text>
	<rect x="133.7" y="228.8" class="st3" width="81.3" height="45.3"/>
</g>
<g>
	<text transform="matrix(1 0 0 1 151.1442 132.0536)"><tspan x="0" y="0" class="st4 st0 st5">Object-1</tspan><tspan x="-1" y="14.4" class="st4 st0 st5">(class-A)</tspan></text>
	<rect x="133.2" y="113.4" class="st3" width="81.3" height="45.3"/>
</g>
<g>
	<text transform="matrix(1 0 0 1 151.7201 362.9062)"><tspan x="0" y="0" class="st6 st0 st5">Object-2</tspan><tspan x="-1" y="14.4" class="st6 st0 st5">(class-B)</tspan></text>
	<rect x="133.7" y="344.2" class="st7" width="81.3" height="45.3"/>
</g>
<g>
	<g>
		<line class="st2" x1="419.8" y1="290.2" x2="419.8" y2="322.2"/>
		<g>
			<polygon points="416.1,319.4 419.8,320.9 423.5,319.4 419.8,328.1 			"/>
		</g>
	</g>
</g>
<g>
	<polygon class="st8" points="369.1,289.9 316.7,289.9 290.5,309.2 316.7,328.5 369.1,328.5 395.3,309.2 	"/>
	<text transform="matrix(1 0 0 1 317.5697 305.1931)"><tspan x="0" y="0" class="st9 st0 st5">Method-2</tspan><tspan x="1.7" y="14.4" class="st9 st0 st5">(class-B)</tspan></text>
</g>
<polygon class="st8" points="369.1,174.4 316.7,174.4 290.5,193.8 316.7,213.1 369.1,213.1 395.3,193.8 "/>
<text transform="matrix(1 0 0 1 317.5697 189.7668)"><tspan x="0" y="0" class="st9 st0 st5">Method-1</tspan><tspan x="1.7" y="14.4" class="st9 st0 st5">(class-B)</tspan></text>
<g>
	<g>
		<line class="st2" x1="419.8" y1="174.8" x2="419.8" y2="206.7"/>
		<g>
			<polygon points="416.1,203.9 419.8,205.5 423.5,203.9 419.8,212.7 			"/>
		</g>
	</g>
</g>
<text transform="matrix(1 0 0 1 396.5133 132.0536)"><tspan x="0" y="0" class="st9 st0 st5">Object-1</tspan><tspan x="-1" y="14.4" class="st9 st0 st5">(class-B)</tspan></text>
<rect x="378.5" y="113.4" class="st8" width="81.3" height="45.3"/>
<text transform="matrix(1 0 0 1 392.0851 247.4801)"><tspan x="0" y="0" class="st9 st0 st5">Object-1.2</tspan><tspan x="4" y="14.4" class="st9 st0 st5">(class-B)</tspan></text>
<rect x="379.1" y="228.8" class="st8" width="81.3" height="45.3"/>
<text transform="matrix(1 0 0 1 397.0892 362.9062)"><tspan x="0" y="0" class="st6 st0 st5">Object-2</tspan><tspan x="-1" y="14.4" class="st6 st0 st5">(class-B)</tspan></text>
<rect x="379.1" y="344.2" class="st7" width="81.3" height="45.3"/>
<g>
	<polygon class="st3" points="614.8,169.9 562.4,169.9 536.1,189.2 562.4,208.6 614.8,208.6 641,189.2 	"/>
	<text transform="matrix(1 0 0 1 563.2271 185.2462)"><tspan x="0" y="0" class="st4 st0 st5">Method-1</tspan><tspan x="1.7" y="14.4" class="st4 st0 st5">(class-B)</tspan></text>
	<g>
		<g>
			<line class="st10" x1="665.4" y1="170.3" x2="665.4" y2="203"/>
			<g>
				<path class="st11" d="M663.1,208.2c-0.7,0-1.2-0.5-1.2-1.2c0-0.3,0.1-0.5,0.2-0.7l2.9-2.9c-0.1-0.1-0.1-0.1-0.1-0.2l-3.7,1
					l-0.3,0.1c-0.5,0.1-0.9-0.2-1.2-0.6c-0.3-0.6-0.1-1.3,0.4-1.6c0.2-0.1,0.5-0.2,0.7-0.2h0l0.4,0.1l0,0l0,0l0,0l3.6,1
					c0-0.1,0.1-0.2,0.1-0.2l-2.9-2.9c0,0-0.1-0.1-0.1-0.1c-0.3-0.6-0.1-1.3,0.4-1.7s1.3-0.1,1.7,0.4c0,0,0.1,0.1,0.1,0.1v0l0.1,0.3
					v0l0,0l1,3.6c0.1,0,0.1,0,0.1,0c0.1,0,0.1,0,0.1,0l1-3.7l0.1-0.3c0,0,0-0.1,0.1-0.1c0.3-0.6,1.1-0.8,1.7-0.4s0.8,1.1,0.4,1.7
					c0,0-0.1,0.1-0.1,0.1l-0.1,0.1l-2.8,2.8c0.1,0.1,0.1,0.1,0.1,0.2l3.7-1l0.3-0.1h0c0,0,0.1,0,0.1,0c0.7,0,1.2,0.5,1.2,1.2
					c0,0.7-0.5,1.2-1.2,1.2c-0.1,0-0.1,0-0.2,0h0l0,0l-0.2-0.1l-0.1,0l-3.7-1c0,0.1-0.1,0.2-0.1,0.2l2.7,2.7l0.1,0.2
					c0.3,0.4,0.4,0.9,0.1,1.4c-0.3,0.6-1.1,0.8-1.6,0.4c-0.2-0.1-0.4-0.3-0.5-0.6v0l-0.1-0.3l-1-3.7c0,0-0.1,0-0.1,0
					c-0.1,0-0.1,0-0.1,0l-1,3.7v0l-0.1,0.2C664,207.9,663.6,208.2,663.1,208.2z"/>
			</g>
		</g>
	</g>
	<text transform="matrix(1 0 0 1 642.1707 127.533)"><tspan x="0" y="0" class="st9 st0 st5">Object-1</tspan><tspan x="-1" y="14.4" class="st9 st0 st5">(class-B)</tspan></text>
	<rect x="624.2" y="108.9" class="st8" width="81.3" height="45.3"/>
	<text transform="matrix(1 0 0 1 633.1767 238.2378)" class="st11 st0 st5">!! ERROR !!</text>
</g>
<g>
	<g>
		<line class="st2" x1="360" y1="52.4" x2="201.1" y2="98.7"/>
		<g>
			<polygon points="202.8,94.4 202.3,98.4 204.9,101.5 195.4,100.4 			"/>
		</g>
	</g>
</g>
<g>
	<g>
		<line class="st2" x1="476.4" y1="52.4" x2="635.3" y2="98.7"/>
		<g>
			<polygon points="631.5,101.5 634.1,98.4 633.6,94.4 641,100.4 			"/>
		</g>
	</g>
</g>
<g>
	<g>
		<line class="st2" x1="419.8" y1="57.5" x2="419.8" y2="89.4"/>
		<g>
			<polygon points="416.1,86.6 419.8,88.2 423.5,86.6 419.8,95.4 			"/>
		</g>
	</g>
</g>
</svg>
