<?xml version="1.0" encoding="utf-8"?>
<!-- Generator: Adobe Illustrator 26.1.0, SVG Export Plug-In . SVG Version: 6.00 Build 0)  -->
<svg version="1.1" id="Layer_1" xmlns="http://www.w3.org/2000/svg" xmlns:xlink="http://www.w3.org/1999/xlink" x="0px" y="0px"
	 viewBox="0 0 412.4 122.6" style="enable-background:new 0 0 412.4 122.6;" xml:space="preserve">
<style type="text/css">
	.st0{font-family:'ArialMT';}
	.st1{font-size:12px;}
	.st2{fill:none;stroke:#000000;stroke-miterlimit:10;}
</style>
<text transform="matrix(1 0 0 1 41.3312 43.5553)" class="st0 st1">1</text>
<text transform="matrix(1 0 0 1 67.3744 43.5557)" class="st0 st1">2</text>
<text transform="matrix(0.948 0 0 1 93.5915 43.5558)" class="st0 st1">3</text>
<text transform="matrix(1 0 0 1 119.4614 43.5557)" class="st0 st1">4</text>
<text transform="matrix(1 0 0 1 145.5046 43.5561)" class="st0 st1">5</text>
<text transform="matrix(0.948 0 0 1 171.7215 43.5557)" class="st0 st1">6</text>
<text transform="matrix(1 0 0 1 197.5914 43.5561)" class="st0 st1">7</text>
<text transform="matrix(1 0 0 1 223.6346 43.556)" class="st0 st1">8</text>
<text transform="matrix(0.948 0 0 1 249.8515 43.5561)" class="st0 st1">9</text>
<text transform="matrix(1 0 0 1 272.3844 43.5559)" class="st0 st1">10</text>
<text transform="matrix(1 0 0 1 298.4279 43.556)" class="st0 st1">11</text>
<text transform="matrix(0.948 0 0 1 324.8182 43.5561)" class="st0 st1">12</text>
<rect x="45.8" y="54.5" width="74.9" height="8.7"/>
<rect x="125.6" y="54.5" width="74" height="8.7"/>
<rect x="204.5" y="54.5" width="73.2" height="8.7"/>
<rect x="282.5" y="54.5" width="73.9" height="8.7"/>
<text transform="matrix(0.948 0 0 1 350.862 43.5559)" class="st0 st1">13</text>
<rect x="35.7" y="29.2" class="st2" width="18.3" height="18.3"/>
<rect x="113.9" y="29.2" class="st2" width="18.3" height="18.3"/>
<rect x="190.4" y="29.2" class="st2" width="18.3" height="18.3"/>
<rect x="270.7" y="29.2" class="st2" width="18.3" height="18.3"/>
<rect x="349.1" y="29.2" class="st2" width="18.3" height="18.3"/>
<text transform="matrix(1 0 0 1 37.1231 94.054)" class="st0 st1">0%</text>
<text transform="matrix(1 0 0 1 111.0857 94.0539)" class="st0 st1">25%</text>
<text transform="matrix(1 0 0 1 190.1484 94.054)" class="st0 st1">50%</text>
<text transform="matrix(1 0 0 1 267.8248 94.3659)" class="st0 st1">75%</text>
<text transform="matrix(1 0 0 1 342.9367 94.0539)" class="st0 st1">100%</text>
</svg>
