<svg id="Layer_1" data-name="Layer 1" xmlns="http://www.w3.org/2000/svg" viewBox="0 0 876.31 395.45"><defs><style>.cls-1,.cls-11,.cls-3,.cls-6{fill:#1d1d1b;}.cls-2,.cls-5{fill:none;}.cls-19,.cls-2,.cls-5{stroke:#1d1d1b;stroke-miterlimit:10;}.cls-11,.cls-3{font-size:20px;}.cls-20,.cls-22,.cls-26,.cls-3,.cls-6{font-family:MyriadPro-Regular, Myriad Pro;}.cls-4{letter-spacing:-0.01em;}.cls-5{stroke-dasharray:5.87 5.87;}.cls-20,.cls-22,.cls-26,.cls-6{font-size:12px;}.cls-7{letter-spacing:0em;}.cls-8{letter-spacing:0.01em;}.cls-9{letter-spacing:0em;}.cls-10{letter-spacing:-0.01em;}.cls-11{font-family:Aller-Regular, Aller;}.cls-12{letter-spacing:-0.01em;}.cls-13{letter-spacing:-0.02em;}.cls-14{letter-spacing:-0.01em;}.cls-15{letter-spacing:0.02em;}.cls-16{letter-spacing:-0.01em;}.cls-17{letter-spacing:0.01em;}.cls-18{letter-spacing:-0.09em;}.cls-19{fill:#fff;}.cls-20{fill:#e30613;}.cls-21{letter-spacing:0.01em;}.cls-22{fill:#0b7e35;}.cls-23{letter-spacing:0em;}.cls-24{letter-spacing:0em;}.cls-25{letter-spacing:-0.01em;}.cls-26{fill:#009640;}</style></defs><circle class="cls-1" cx="59.42" cy="326.28" r="9.31"/><circle class="cls-1" cx="140.76" cy="326.28" r="9.31"/><line class="cls-2" x1="68.73" y1="326.28" x2="125.41" y2="326.28"/><path class="cls-1" d="M131.44,326.28A30.15,30.15,0,0,0,122.9,331l1.72-4.76-1.72-4.75A30.12,30.12,0,0,0,131.44,326.28Z"/><text class="cls-3" transform="translate(48.49 302.58)">C1</text><text class="cls-3" transform="translate(129.83 302.78)">C2</text><text class="cls-3" transform="translate(700.14 332.03)">mas<tspan class="cls-4" x="34.24" y="0">t</tspan><tspan x="40.74" y="0">er</tspan></text><circle class="cls-1" cx="299.63" cy="326.28" r="9.31"/><line class="cls-2" x1="150.07" y1="326.28" x2="284.29" y2="326.28"/><path class="cls-1" d="M290.32,326.28a30.34,30.34,0,0,0-8.55,4.76l1.72-4.76-1.72-4.75A30.31,30.31,0,0,0,290.32,326.28Z"/><text class="cls-3" transform="translate(290.32 302.98)">C3</text><circle class="cls-1" cx="385.67" cy="326.28" r="9.31"/><text class="cls-3" transform="translate(376.36 302.58)">C4</text><line class="cls-2" x1="308.95" y1="326.28" x2="370.04" y2="326.68"/><path class="cls-1" d="M376.07,326.72a30.35,30.35,0,0,0-8.58,4.7l1.75-4.74-1.68-4.77A30.11,30.11,0,0,0,376.07,326.72Z"/><line class="cls-2" x1="394.98" y1="326.06" x2="397.98" y2="326.08"/><line class="cls-5" x1="403.85" y1="326.12" x2="588.71" y2="327.33"/><line class="cls-2" x1="591.64" y1="327.35" x2="594.64" y2="327.37"/><path class="cls-1" d="M600.67,327.41a30.3,30.3,0,0,0-8.57,4.7l1.75-4.74-1.69-4.77A30.11,30.11,0,0,0,600.67,327.41Z"/><text class="cls-6" transform="translate(105.01 238.91)"><tspan class="cls-7">R</tspan><tspan x="6.5" y="0">enamed fun</tspan><tspan class="cls-8" x="67.07" y="0">c</tspan><tspan class="cls-9" x="72.6" y="0">tion </tspan><tspan class="cls-10" x="95.17" y="0">t</tspan><tspan x="99.07" y="0">o fun</tspan><tspan class="cls-8" x="124.98" y="0">c</tspan><tspan x="130.51" y="0">tion2</tspan></text><rect class="cls-2" x="90.75" y="218.66" width="180.94" height="32.12"/><rect class="cls-2" x="140.76" y="250.78" width="0.84" height="22.49"/><text class="cls-11" transform="translate(430.78 352.87)">git <tspan class="cls-12" x="28.72" y="0">r</tspan><tspan class="cls-13" x="35.86" y="0">ev</tspan><tspan x="56.8" y="0">ert C2</tspan></text><circle class="cls-1" cx="609.35" cy="326.76" r="9.31"/><text class="cls-3" transform="translate(600.04 303.06)">C5</text><text class="cls-6" transform="translate(558.37 231.86)"><tspan class="cls-7">R</tspan><tspan x="6.5" y="0">e</tspan><tspan class="cls-14" x="12.52" y="0">v</tspan><tspan x="18.17" y="0">e</tspan><tspan class="cls-15" x="24.18" y="0">r</tspan><tspan x="28.39" y="0">t ”</tspan><tspan class="cls-7" x="39.16" y="0">R</tspan><tspan x="45.66" y="0">enamed fun</tspan><tspan class="cls-8" x="106.22" y="0">c</tspan><tspan x="111.75" y="0">tion </tspan><tspan class="cls-16" x="134.33" y="0">t</tspan><tspan x="138.23" y="0">o fun</tspan><tspan class="cls-17" x="164.13" y="0">c</tspan><tspan x="169.67" y="0">tion2</tspan><tspan class="cls-18" x="195.85" y="0">”</tspan></text><rect class="cls-2" x="542.59" y="211.74" width="226.04" height="32.12"/><rect class="cls-2" x="609.39" y="243.86" width="0.84" height="22.49"/><rect class="cls-19" x="25.01" y="55.52" width="132.31" height="123.74"/><text class="cls-20" transform="translate(33.21 75.71)">def fun<tspan class="cls-21" x="35.6" y="0">c</tspan><tspan x="41.14" y="0">tion</tspan></text><text class="cls-22" transform="translate(33.67 91.37)">def fun<tspan class="cls-21" x="35.6" y="0">c</tspan><tspan x="41.14" y="0">tion2</tspan></text><rect class="cls-19" x="121.77" y="62.6" width="132.31" height="123.74"/><text class="cls-20" transform="translate(129.97 82.8)">fun<tspan class="cls-21" x="16.78" y="0">c</tspan><tspan x="22.31" y="0">tion(a, </tspan><tspan class="cls-23" x="56.55" y="0">b</tspan><tspan x="63.35" y="0">)</tspan></text><text class="cls-22" transform="translate(130.43 98.46)">fun<tspan class="cls-21" x="16.78" y="0">c</tspan><tspan x="22.31" y="0">tion2(a, </tspan><tspan class="cls-24" x="62.71" y="0">b</tspan><tspan x="69.5" y="0">)</tspan></text><text class="cls-20" transform="translate(137.73 152.25)">fun<tspan class="cls-21" x="16.78" y="0">c</tspan><tspan x="22.31" y="0">tion(a, </tspan><tspan class="cls-23" x="56.55" y="0">b</tspan><tspan x="63.35" y="0">)</tspan></text><text class="cls-22" transform="translate(138.19 167.91)">fun<tspan class="cls-21" x="16.78" y="0">c</tspan><tspan x="22.31" y="0">tion2(a, </tspan><tspan class="cls-24" x="62.71" y="0">b</tspan><tspan x="69.5" y="0">)</tspan></text><rect class="cls-19" x="216.6" y="67.79" width="132.31" height="123.74"/><text class="cls-20" transform="translate(224.74 121.83)">fun<tspan class="cls-21" x="16.78" y="0">c</tspan><tspan x="22.31" y="0">tion(a, </tspan><tspan class="cls-23" x="56.55" y="0">b</tspan><tspan x="63.35" y="0">)</tspan></text><text class="cls-22" transform="translate(225.2 137.49)">fun<tspan class="cls-21" x="16.78" y="0">c</tspan><tspan x="22.31" y="0">tion2(a, </tspan><tspan class="cls-24" x="62.71" y="0">b</tspan><tspan x="69.5" y="0">)</tspan></text><rect class="cls-19" x="25.01" y="33.29" width="132.31" height="22.23"/><text class="cls-6" transform="translate(66.79 47.67)">sc<tspan class="cls-7" x="10.13" y="0">r</tspan><tspan x="14.1" y="0">ipt1.</tspan><tspan class="cls-25" x="36.35" y="0">p</tspan><tspan x="43.09" y="0">y</tspan></text><rect class="cls-19" x="121.77" y="40.37" width="132.31" height="22.23"/><text class="cls-6" transform="translate(163.55 54.75)">sc<tspan class="cls-7" x="10.13" y="0">r</tspan><tspan x="14.1" y="0">ipt2.</tspan><tspan class="cls-25" x="36.35" y="0">p</tspan><tspan x="43.09" y="0">y</tspan></text><rect class="cls-19" x="216.6" y="46.29" width="132.31" height="22.23"/><text class="cls-6" transform="translate(258.38 60.67)">sc<tspan class="cls-7" x="10.13" y="0">r</tspan><tspan x="14.1" y="0">ipt3.</tspan><tspan class="cls-25" x="36.35" y="0">p</tspan><tspan x="43.09" y="0">y</tspan></text><rect class="cls-19" x="493.66" y="50.33" width="132.31" height="123.74"/><text class="cls-26" transform="translate(501.86 70.53)">def fun<tspan class="cls-21" x="35.6" y="0">c</tspan><tspan x="41.14" y="0">tion</tspan></text><text class="cls-20" transform="translate(502.32 86.19)">def fun<tspan class="cls-21" x="35.6" y="0">c</tspan><tspan x="41.14" y="0">tion2</tspan></text><rect class="cls-19" x="590.42" y="57.41" width="132.31" height="123.74"/><text class="cls-26" transform="translate(598.63 77.61)">fun<tspan class="cls-21" x="16.78" y="0">c</tspan><tspan x="22.31" y="0">tion(a, </tspan><tspan class="cls-23" x="56.55" y="0">b</tspan><tspan x="63.35" y="0">)</tspan></text><text class="cls-20" transform="translate(599.08 93.27)">fun<tspan class="cls-21" x="16.78" y="0">c</tspan><tspan x="22.31" y="0">tion2(a, </tspan><tspan class="cls-24" x="62.71" y="0">b</tspan><tspan x="69.5" y="0">)</tspan></text><text class="cls-26" transform="translate(606.38 147.06)">fun<tspan class="cls-21" x="16.78" y="0">c</tspan><tspan x="22.31" y="0">tion(a, </tspan><tspan class="cls-23" x="56.55" y="0">b</tspan><tspan x="63.35" y="0">)</tspan></text><text class="cls-20" transform="translate(606.84 162.72)">fun<tspan class="cls-21" x="16.78" y="0">c</tspan><tspan x="22.31" y="0">tion2(a, </tspan><tspan class="cls-24" x="62.71" y="0">b</tspan><tspan x="69.5" y="0">)</tspan></text><rect class="cls-19" x="685.25" y="62.6" width="132.31" height="123.74"/><text class="cls-26" transform="translate(693.4 116.64)">fun<tspan class="cls-21" x="16.78" y="0">c</tspan><tspan x="22.31" y="0">tion(a, </tspan><tspan class="cls-23" x="56.55" y="0">b</tspan><tspan x="63.35" y="0">)</tspan></text><text class="cls-20" transform="translate(693.85 132.3)">fun<tspan class="cls-21" x="16.78" y="0">c</tspan><tspan x="22.31" y="0">tion2(a, </tspan><tspan class="cls-24" x="62.71" y="0">b</tspan><tspan x="69.5" y="0">)</tspan></text><rect class="cls-19" x="493.66" y="28.11" width="132.31" height="22.23"/><text class="cls-6" transform="translate(535.44 42.48)">sc<tspan class="cls-7" x="10.13" y="0">r</tspan><tspan x="14.1" y="0">ipt1.</tspan><tspan class="cls-25" x="36.35" y="0">p</tspan><tspan x="43.09" y="0">y</tspan></text><rect class="cls-19" x="590.42" y="35.19" width="132.31" height="22.23"/><text class="cls-6" transform="translate(632.2 49.56)">sc<tspan class="cls-7" x="10.13" y="0">r</tspan><tspan x="14.1" y="0">ipt2.</tspan><tspan class="cls-25" x="36.35" y="0">p</tspan><tspan x="43.09" y="0">y</tspan></text><rect class="cls-19" x="685.25" y="41.1" width="132.31" height="22.23"/><text class="cls-6" transform="translate(727.03 55.48)">sc<tspan class="cls-7" x="10.13" y="0">r</tspan><tspan x="14.1" y="0">ipt3.</tspan><tspan class="cls-25" x="36.35" y="0">p</tspan><tspan x="43.09" y="0">y</tspan></text></svg>